<svg xmlns="http://www.w3.org/2000/svg" width="1200" height="320" viewBox="0 0 1200 320" role="img" aria-label="Steam Idle Bot — farm Steam playtime and trading-card drops on autopilot">
  <defs>
    <linearGradient id="bg" x1="0" y1="0" x2="1" y2="1">
      <stop offset="0" stop-color="#171a21"/>
      <stop offset="0.55" stop-color="#1b2838"/>
      <stop offset="1" stop-color="#2a475e"/>
    </linearGradient>
    <linearGradient id="accent" x1="0" y1="0" x2="1" y2="0">
      <stop offset="0" stop-color="#66c0f4"/>
      <stop offset="1" stop-color="#a3cf06"/>
    </linearGradient>
    <filter id="soft" x="-20%" y="-20%" width="140%" height="140%">
      <feDropShadow dx="0" dy="2" stdDeviation="6" flood-color="#000000" flood-opacity="0.45"/>
    </filter>
  </defs>

  <rect width="1200" height="320" rx="20" fill="url(#bg)"/>
  <rect x="0" y="0" width="1200" height="6" fill="url(#accent)"/>

  <!-- trading cards motif -->
  <g transform="translate(905,160)" filter="url(#soft)">
    <g transform="rotate(-16)">
      <rect x="-60" y="-94" width="150" height="210" rx="14" fill="#0e1116" stroke="#3a6a8a" stroke-width="2"/>
    </g>
    <g transform="rotate(-2)">
      <rect x="-40" y="-100" width="150" height="210" rx="14" fill="#1b2838" stroke="#66c0f4" stroke-width="2"/>
      <circle cx="35" cy="-55" r="26" fill="none" stroke="#66c0f4" stroke-width="3"/>
      <path d="M35 -75 l6 14 15 1 -11 10 4 15 -14 -8 -14 8 4 -15 -11 -10 15 -1z" fill="#a3cf06"/>
      <rect x="-12" y="-8" width="94" height="9" rx="4" fill="#2a475e"/>
      <rect x="-12" y="12" width="70" height="8" rx="4" fill="#22384a"/>
      <rect x="-12" y="30" width="84" height="8" rx="4" fill="#22384a"/>
    </g>
  </g>

  <!-- title block -->
  <g transform="translate(70,108)">
    <g transform="translate(0,-34)">
      <circle cx="22" cy="22" r="22" fill="#0e1116" stroke="url(#accent)" stroke-width="3"/>
      <circle cx="22" cy="22" r="8" fill="#66c0f4"/>
      <path d="M22 6 a16 16 0 0 1 14 8" fill="none" stroke="#a3cf06" stroke-width="3" stroke-linecap="round"/>
    </g>
    <text x="62" y="-2" font-family="Segoe UI, Helvetica, Arial, sans-serif" font-size="58" font-weight="800" fill="#ffffff">Steam Idle Bot</text>
    <text x="64" y="42" font-family="Segoe UI, Helvetica, Arial, sans-serif" font-size="25" font-weight="500" fill="#c7d5e0">Farm playtime &amp; trading-card drops — on autopilot.</text>
  </g>

  <!-- feature chips -->
  <g font-family="Segoe UI, Helvetica, Arial, sans-serif" font-size="18" font-weight="600">
    <g transform="translate(72,196)">
      <rect width="232" height="42" rx="21" fill="#0e1116" stroke="#66c0f4" stroke-width="1.5"/>
      <text x="116" y="27" text-anchor="middle" fill="#66c0f4">Drops only where it matters</text>
    </g>
    <g transform="translate(320,196)">
      <rect width="170" height="42" rx="21" fill="#0e1116" stroke="#a3cf06" stroke-width="1.5"/>
      <text x="85" y="27" text-anchor="middle" fill="#a3cf06">Learns over time</text>
    </g>
    <g transform="translate(506,196)">
      <rect width="196" height="42" rx="21" fill="#0e1116" stroke="#c7d5e0" stroke-width="1.5"/>
      <text x="98" y="27" text-anchor="middle" fill="#c7d5e0">Two idling backends</text>
    </g>
  </g>

  <g font-family="Segoe UI, Helvetica, Arial, sans-serif" font-size="15" font-weight="500" fill="#8aa0b2">
    <text x="72" y="276">Python 3.12+ · uv-managed · 242 tests · MIT</text>
  </g>
</svg>
